<svg xmlns="http://www.w3.org/2000/svg" width="60" height="60" viewBox="0 0 60 60">
  <g fill="none" fill-rule="evenodd">
    <rect width="60" height="60" fill="#FF9500"/>
    <path fill="#FFF" d="M10,18.9964905 C10,17.3415745 11.3423094,16 13.0065012,16 L46.9934988,16 C48.6539436,16 50,17.3504982 50,18.9964905 L50,41.0035095 C50,42.6584255 48.6576906,44 46.9934988,44 L13.0065012,44 C11.3460564,44 10,42.6495018 10,41.0035095 L10,18.9964905 Z M18.6923077,26.3076923 C19.966811,26.3076923 21,25.2745033 21,24 C21,22.7254967 19.966811,21.6923077 18.6923077,21.6923077 C17.4178044,21.6923077 16.3846154,22.7254967 16.3846154,24 C16.3846154,25.2745033 17.4178044,26.3076923 18.6923077,26.3076923 Z M24,23 L24,25 L41,25 L41,23 L24,23 Z M24,29 L24,31 L41,31 L41,29 L24,29 Z M24,35 L24,37 L41,37 L41,35 L24,35 Z"/>
  </g>
</svg>
