<svg xmlns="http://www.w3.org/2000/svg" width="38" height="38" viewBox="0 0 38 38">
  <g fill="none" fill-rule="evenodd">
    <rect width="38" height="38" fill="#FCA52A" rx="4"/>
    <path fill="#FFF" d="M25.0454545,9.79915104 L25.0454545,23.9338933 C22.7455354,23.3592414 20.1157877,22.8863675 17.745816,22.654935 L19,29.3636364 L15.6825397,29.3636364 L14.0357368,22.4979215 C11.0321665,22.3704494 8.63636364,19.9025119 8.63636364,16.8752682 C8.63636364,13.7671064 11.1615544,11.2474434 14.2799167,11.2474434 L14.7606542,11.2484821 C17.7458345,11.2549318 21.6811723,10.67099 25.0454545,9.79915104 Z M26.1377389,9.5 C27.3433038,9.15109244 28.445227,8.76650344 29.3636364,8.36211562 L27.5266854,9.17094943 C28.5417652,8.72399636 29.3636364,9.25522947 29.3636364,10.3569412 L29.3636364,23.3224076 C29.3636364,24.4295247 28.5421958,24.959846 27.5288976,24.5189865 L29.3636364,25.3172332 C28.6526457,25.0078998 27.7677097,24.6982577 26.7727273,24.403443 L26.7727273,9.5 L26.1377389,9.5 Z"/>
  </g>
</svg>
