<svg xmlns="http://www.w3.org/2000/svg" width="60" height="60" viewBox="0 0 60 60">
  <g fill="none" fill-rule="evenodd">
    <rect width="60" height="60" fill="#3DCF52"/>
    <path fill="#FFF" d="M47.7117323,45.0676578 C47.4606333,45.3187567 46.6414053,46.1379848 46.4738272,46.3055629 C43.0554467,49.7239433 33.1716965,45.382483 24.3978533,36.6086397 C15.6240101,27.8347965 11.2825497,17.9510463 14.7009302,14.5326658 C14.8685083,14.3650877 15.6877363,13.5458597 15.9388353,13.2947608 C17.3527494,11.8808466 20.2708987,10.9980139 20.2708987,10.9980139 L26.2873181,20.2735723 C26.5902039,20.7405336 26.5984661,21.5046529 26.313789,21.9672531 L24.7673109,24.4802801 C24.2223388,25.3658597 24.3137325,26.7371722 24.9734809,27.539883 C24.9734809,27.539883 27.2788204,30.4116363 29.1431561,32.275972 C30.9925357,34.1253515 33.4548483,36.0464053 33.4548483,36.0464053 C34.2587516,36.6988913 35.6391517,36.785066 36.5262129,36.2391822 L38.9921153,34.7217038 C39.4644786,34.4310186 40.2345909,34.4199729 40.7089622,34.6951488 L50.3754909,40.3025614 C50.3754909,40.3025614 49.1137626,43.6656275 47.7117323,45.0676578 Z"/>
  </g>
</svg>
