<svg xmlns="http://www.w3.org/2000/svg" width="38" height="38" viewBox="0 0 38 38">
  <g fill="none" fill-rule="evenodd">
    <rect width="38" height="38" fill="#61BF44" rx="5"/>
    <path fill="#FFF" d="M29.3725028,29.0505647 C29.2084112,29.2146563 28.6730509,29.7500167 28.5635397,29.8595279 C26.3296497,32.0934179 19.8706815,29.256301 14.1370304,23.52265 C8.40337939,17.788999 5.56626253,11.3300308 7.80015254,9.09614075 C7.90966376,8.98662953 8.4450241,8.45126919 8.60911567,8.28717762 C9.5330996,7.36319369 10.5031169,7.25768917 10.5031169,7.25768917 C11.2975172,7.0259862 12.2777249,7.4205024 12.6900249,8.13462692 L15.2348726,12.5424323 C15.5084205,13.0162312 15.4947256,13.7829261 15.2036994,14.2558437 L14.3784686,15.5968437 C14.0223328,16.1755644 14.082058,17.0717084 14.5131994,17.5962748 C14.5131994,17.5962748 16.0197242,19.4729475 17.2380558,20.691279 C18.4466136,21.8998369 20.0557194,23.1552333 20.0557194,23.1552333 C20.581065,23.5816288 21.4831478,23.6379434 22.0628367,23.2812118 L23.3754237,22.4734659 C23.8491685,22.1819307 24.6255445,22.1721065 25.0943705,22.4427833 L29.5189627,24.9973228 C30.2377119,25.4122929 30.6499217,26.3965957 30.3922871,27.1905728 C30.3922871,27.1905728 30.2887207,28.1343468 29.3725028,29.0505647 Z"/>
  </g>
</svg>
